<?xml version="1.0" encoding="utf-8"?>
<!-- Generator: Adobe Illustrator 16.0.0, SVG Export Plug-In . SVG Version: 6.00 Build 0)  -->
<!DOCTYPE svg PUBLIC "-//W3C//DTD SVG 1.1//EN" "http://www.w3.org/Graphics/SVG/1.1/DTD/svg11.dtd">
<svg version="1.1" id="Layer_1" xmlns="http://www.w3.org/2000/svg" xmlns:xlink="http://www.w3.org/1999/xlink" x="0px" y="0px"
	 width="367px" height="367px" viewBox="0 0 367 367" enable-background="new 0 0 367 367" xml:space="preserve">
<path fill="none" stroke="#636262" stroke-width="5" stroke-miterlimit="10" d="M263.265,278.686h38.609
	c11.086,0,16.729-8.985,16.729-20.074V139.708c0-11.086-5.646-20.073-16.729-20.073H258.94"/>
<polyline fill="none" stroke="#636262" stroke-width="5" stroke-miterlimit="10" points="39.681,301.746 299.095,301.746 
	299.095,315.129 39.681,315.129 "/>
<rect x="29.929" y="301.746" fill="none" stroke="#636262" stroke-width="5" stroke-miterlimit="10" width="259.414" height="13.383"/>
<polyline fill="none" stroke="#636262" stroke-width="5" stroke-miterlimit="10" points="332.863,301.746 341.363,301.746 
	341.363,315.129 332.863,315.129 "/>
<path fill="none" stroke="#636262" stroke-width="5" stroke-miterlimit="10" d="M333.138,315.129h-24.803
	c0,0-2.505-13.383,16.729-13.383c3.479,0,8.07,0,8.07,0L333.138,315.129L333.138,315.129z"/>
<polyline fill="none" stroke="#636262" stroke-width="3" stroke-miterlimit="10" points="164.855,285.303 206.81,285.303 
	206.81,293.664 164.855,293.664 "/>
<rect x="158.166" y="285.303" fill="none" stroke="#636262" stroke-width="3" stroke-miterlimit="10" width="41.955" height="8.361"/>
<path fill="none" stroke="#636262" stroke-width="5" stroke-linecap="round" stroke-miterlimit="10" d="M288.779,119.634H69.508
	c-11.086,0-20.071,8.987-20.071,20.073v118.904c0,11.086,8.985,20.072,20.071,20.072h219.271c11.086,0,20.07-8.986,20.07-20.072
	V139.708C308.853,128.621,299.865,119.634,288.779,119.634z M147.283,270.322c-2.865,0-5.188-2.324-5.188-5.189
	c0-2.867,2.321-5.189,5.188-5.189c2.863,0,5.188,2.322,5.188,5.189C152.47,267.998,150.148,270.322,147.283,270.322z
	 M169.551,270.322c-2.866,0-5.188-2.324-5.188-5.189c0-2.867,2.318-5.189,5.188-5.189c2.863,0,5.188,2.322,5.188,5.189
	C174.738,267.998,172.414,270.322,169.551,270.322z M191.818,270.322c-2.865,0-5.189-2.324-5.189-5.189
	c0-2.867,2.324-5.189,5.189-5.189c2.861,0,5.188,2.322,5.188,5.189C197.004,267.998,194.681,270.322,191.818,270.322z
	 M293.287,251.094H62.49V149.406c0-9.185,7.441-16.63,16.631-16.63h197.535c9.186,0,16.631,7.446,16.631,16.63V251.094
	L293.287,251.094z"/>
<line fill="none" stroke="#636262" stroke-width="3" stroke-linecap="round" stroke-linejoin="round" stroke-miterlimit="10" x1="15" y1="325.234" x2="226.885" y2="325.234"/>
<line fill="none" stroke="#636262" stroke-width="3" stroke-linecap="round" stroke-linejoin="round" stroke-miterlimit="10" x1="235.804" y1="325.234" x2="256.996" y2="325.234"/>
<line fill="none" stroke="#636262" stroke-width="3" stroke-linecap="round" stroke-linejoin="round" stroke-miterlimit="10" x1="265.914" y1="325.234" x2="277.068" y2="325.234"/>
<line fill="none" stroke="#636262" stroke-width="3" stroke-linecap="round" stroke-linejoin="round" stroke-miterlimit="10" x1="289.332" y1="325.234" x2="352.343" y2="325.234"/>
<path fill="none" stroke="#636262" stroke-width="3" stroke-linecap="round" stroke-miterlimit="10" d="M76.508,126.634
	c-11.086,0-20.071,8.987-20.071,20.073v38.902"/>
<line fill="none" stroke="#636262" stroke-width="3" stroke-linecap="round" stroke-miterlimit="10" x1="243.306" y1="258.717" x2="307.978" y2="258.717"/>
<line fill="none" stroke="#636262" stroke-width="2" stroke-linecap="round" stroke-miterlimit="10" x1="244.611" y1="308.439" x2="289.277" y2="308.439"/>
<line fill="none" stroke="#636262" stroke-width="2" stroke-linecap="round" stroke-miterlimit="10" x1="213.607" y1="308.439" x2="238.277" y2="308.439"/>
<line fill="none" stroke="#636262" stroke-width="2" stroke-linecap="round" stroke-miterlimit="10" x1="175.801" y1="289.484" x2="200.469" y2="289.484"/>
<line fill="none" stroke="#636262" stroke-width="2" stroke-linecap="round" stroke-miterlimit="10" x1="323.611" y1="308.439" x2="333.277" y2="308.439"/>
<line fill="none" stroke="#636262" stroke-width="3" stroke-linecap="round" stroke-miterlimit="10" x1="262.306" y1="264.717" x2="306.978" y2="264.717"/>
<line fill="none" stroke="#636262" stroke-width="3" stroke-linecap="round" stroke-miterlimit="10" x1="279.306" y1="270.717" x2="303.978" y2="270.717"/>
<line fill="none" stroke="#636262" stroke-width="3" stroke-linecap="round" stroke-miterlimit="10" x1="263.306" y1="270.717" x2="272.978" y2="270.717"/>
<line fill="none" stroke="#636262" stroke-width="3" stroke-linecap="round" stroke-linejoin="round" stroke-miterlimit="10" x1="56.433" y1="194.557" x2="56.433" y2="207.557"/>
<line fill="none" stroke="#636262" stroke-width="3" stroke-linecap="round" stroke-linejoin="round" stroke-miterlimit="10" x1="56.433" y1="212.557" x2="56.433" y2="221.557"/>
<circle fill="none" stroke="#636262" stroke-width="10" stroke-miterlimit="10" cx="181.154" cy="190.557" r="33.085"/>
<g>
	<path fill="#636262" d="M181.154,228.643c-21,0-38.086-17.086-38.086-38.086c0-21,17.086-38.083,38.086-38.083
		s38.084,17.084,38.084,38.083C219.238,211.557,202.154,228.643,181.154,228.643z M181.154,162.472
		c-15.486,0-28.086,12.6-28.086,28.084c0,15.485,12.6,28.086,28.086,28.086c15.482,0,28.084-12.601,28.084-28.086
		C209.238,175.072,196.638,162.472,181.154,162.472z"/>
</g>
<polygon fill="#636262" points="213.09,175.045 154.76,214.855 149.422,207.035 208.795,166.512 "/>
<path fill="none" stroke="#FFFFFF" stroke-width="2" stroke-linecap="round" stroke-linejoin="round" stroke-miterlimit="10" d="
	M163.129,162.529c-5.727,3.411-11.221,9.114-13.707,18.663"/>
<path fill="none" stroke="#FFFFFF" stroke-width="2" stroke-linecap="round" stroke-linejoin="round" stroke-miterlimit="10" d="
	M181.154,157.472c0,0-2.371-0.037-5.848,0.598"/>
<line fill="none" stroke="#FFFFFF" stroke-width="2" stroke-linecap="round" stroke-linejoin="round" stroke-miterlimit="10" x1="163.974" y1="204.717" x2="170.89" y2="199.801"/>
<path fill="none" stroke="#FFFFFF" stroke-width="2" stroke-linecap="round" stroke-linejoin="round" stroke-miterlimit="10" d="
	M163.129,218.301"/>
</svg>
