<?xml version="1.0" encoding="utf-8"?>
<!-- Generator: Adobe Illustrator 16.0.0, SVG Export Plug-In . SVG Version: 6.00 Build 0)  -->
<!DOCTYPE svg PUBLIC "-//W3C//DTD SVG 1.1//EN" "http://www.w3.org/Graphics/SVG/1.1/DTD/svg11.dtd">
<svg version="1.1" id="Layer_1" xmlns="http://www.w3.org/2000/svg" xmlns:xlink="http://www.w3.org/1999/xlink" x="0px" y="0px"
	 width="367px" height="367px" viewBox="0 0 367 367" enable-background="new 0 0 367 367" xml:space="preserve">
<path fill="none" stroke="#636262" stroke-width="5" stroke-miterlimit="10" d="M263.265,278.686h38.609
	c11.086,0,16.729-8.985,16.729-20.074V139.708c0-11.086-5.646-20.073-16.729-20.073H258.94"/>
<polyline fill="none" stroke="#636262" stroke-width="5" stroke-miterlimit="10" points="39.681,301.746 299.095,301.746 
	299.095,315.129 39.681,315.129 "/>
<rect x="29.929" y="301.746" fill="none" stroke="#636262" stroke-width="5" stroke-miterlimit="10" width="259.414" height="13.383"/>
<polyline fill="none" stroke="#636262" stroke-width="5" stroke-miterlimit="10" points="332.863,301.746 341.363,301.746 
	341.363,315.129 332.863,315.129 "/>
<path fill="none" stroke="#636262" stroke-width="5" stroke-miterlimit="10" d="M333.138,315.129h-24.803
	c0,0-2.505-13.383,16.729-13.383c3.479,0,8.07,0,8.07,0L333.138,315.129L333.138,315.129z"/>
<polyline fill="none" stroke="#636262" stroke-width="3" stroke-miterlimit="10" points="164.855,285.303 206.81,285.303 
	206.81,293.664 164.855,293.664 "/>
<rect x="158.166" y="285.303" fill="none" stroke="#636262" stroke-width="3" stroke-miterlimit="10" width="41.955" height="8.361"/>
<path fill="none" stroke="#636262" stroke-width="5" stroke-linecap="round" stroke-miterlimit="10" d="M288.779,119.634H69.508
	c-11.086,0-20.071,8.987-20.071,20.073v118.904c0,11.086,8.985,20.072,20.071,20.072h219.271c11.086,0,20.07-8.986,20.07-20.072
	V139.708C308.853,128.621,299.865,119.634,288.779,119.634z M147.283,270.322c-2.865,0-5.188-2.324-5.188-5.189
	c0-2.867,2.321-5.189,5.188-5.189c2.863,0,5.188,2.322,5.188,5.189C152.47,267.998,150.148,270.322,147.283,270.322z
	 M169.551,270.322c-2.866,0-5.188-2.324-5.188-5.189c0-2.867,2.318-5.189,5.188-5.189c2.863,0,5.188,2.322,5.188,5.189
	C174.738,267.998,172.414,270.322,169.551,270.322z M191.818,270.322c-2.865,0-5.189-2.324-5.189-5.189
	c0-2.867,2.324-5.189,5.189-5.189c2.861,0,5.188,2.322,5.188,5.189C197.004,267.998,194.681,270.322,191.818,270.322z
	 M293.287,251.094H62.49V149.406c0-9.185,7.441-16.63,16.631-16.63h197.535c9.186,0,16.631,7.446,16.631,16.63V251.094
	L293.287,251.094z"/>
<line fill="none" stroke="#636262" stroke-width="3" stroke-linecap="round" stroke-linejoin="round" stroke-miterlimit="10" x1="15" y1="325.234" x2="226.885" y2="325.234"/>
<line fill="none" stroke="#636262" stroke-width="3" stroke-linecap="round" stroke-linejoin="round" stroke-miterlimit="10" x1="235.804" y1="325.234" x2="256.996" y2="325.234"/>
<line fill="none" stroke="#636262" stroke-width="3" stroke-linecap="round" stroke-linejoin="round" stroke-miterlimit="10" x1="265.914" y1="325.234" x2="277.068" y2="325.234"/>
<line fill="none" stroke="#636262" stroke-width="3" stroke-linecap="round" stroke-linejoin="round" stroke-miterlimit="10" x1="289.332" y1="325.234" x2="352.343" y2="325.234"/>
<path fill="none" stroke="#636262" stroke-width="3" stroke-linecap="round" stroke-miterlimit="10" d="M76.508,126.634
	c-11.086,0-20.071,8.987-20.071,20.073v38.902"/>
<line fill="none" stroke="#636262" stroke-width="3" stroke-linecap="round" stroke-miterlimit="10" x1="243.306" y1="258.717" x2="307.978" y2="258.717"/>
<line fill="none" stroke="#636262" stroke-width="2" stroke-linecap="round" stroke-miterlimit="10" x1="244.611" y1="308.439" x2="289.277" y2="308.439"/>
<line fill="none" stroke="#636262" stroke-width="2" stroke-linecap="round" stroke-miterlimit="10" x1="213.607" y1="308.439" x2="238.277" y2="308.439"/>
<line fill="none" stroke="#636262" stroke-width="2" stroke-linecap="round" stroke-miterlimit="10" x1="175.801" y1="289.484" x2="200.469" y2="289.484"/>
<line fill="none" stroke="#636262" stroke-width="2" stroke-linecap="round" stroke-miterlimit="10" x1="323.611" y1="308.439" x2="333.277" y2="308.439"/>
<line fill="none" stroke="#636262" stroke-width="3" stroke-linecap="round" stroke-miterlimit="10" x1="262.306" y1="264.717" x2="306.978" y2="264.717"/>
<line fill="none" stroke="#636262" stroke-width="3" stroke-linecap="round" stroke-miterlimit="10" x1="279.306" y1="270.717" x2="303.978" y2="270.717"/>
<line fill="none" stroke="#636262" stroke-width="3" stroke-linecap="round" stroke-miterlimit="10" x1="263.306" y1="270.717" x2="272.978" y2="270.717"/>
<line fill="none" stroke="#636262" stroke-width="3" stroke-linecap="round" stroke-linejoin="round" stroke-miterlimit="10" x1="56.433" y1="194.557" x2="56.433" y2="207.557"/>
<line fill="none" stroke="#636262" stroke-width="3" stroke-linecap="round" stroke-linejoin="round" stroke-miterlimit="10" x1="56.433" y1="212.557" x2="56.433" y2="221.557"/>
<g enable-background="new    ">
	<path fill="#636262" d="M171.562,204.742c0-4.848,0.588-8.707,1.766-11.581c1.175-2.873,3.327-5.703,6.459-8.49
		c3.13-2.785,5.213-5.054,6.25-6.804c1.038-1.749,1.559-3.594,1.559-5.534c0-5.854-2.697-8.781-8.095-8.781
		c-2.562,0-4.607,0.789-6.146,2.365c-1.539,1.578-2.343,3.752-2.412,6.526h-15.044c0.067-6.612,2.205-11.788,6.407-15.526
		c4.2-3.738,9.934-5.607,17.195-5.607c7.331,0,13.021,1.773,17.065,5.322c4.047,3.549,6.069,8.561,6.069,15.033
		c0,2.943-0.657,5.721-1.974,8.334c-1.313,2.614-3.613,5.515-6.897,8.698l-4.202,3.998c-2.628,2.525-4.133,5.484-4.515,8.879
		l-0.207,3.168H171.562z M170.058,220.643c0-2.312,0.786-4.213,2.358-5.713c1.573-1.5,3.587-2.25,6.044-2.25
		c2.455,0,4.471,0.75,6.043,2.25c1.573,1.5,2.36,3.401,2.36,5.713c0,2.273-0.771,4.153-2.311,5.637
		c-1.54,1.482-3.571,2.224-6.097,2.224c-2.524,0-4.559-0.739-6.096-2.224C170.827,224.796,170.058,222.918,170.058,220.643z"/>
</g>
<path fill="none" stroke="#FFFFFF" stroke-width="3" stroke-linecap="round" stroke-linejoin="round" stroke-miterlimit="10" d="
	M161.384,167.278c0,0,0.43-5.564,7.375-9.243"/>
<path fill="none" stroke="#FFFFFF" stroke-width="3" stroke-linecap="round" stroke-linejoin="round" stroke-miterlimit="10" d="
	M179.414,192.064c-3.28,4.095-3.661,6.035-3.529,8.17"/>
<path fill="none" stroke="#FFFFFF" stroke-width="3" stroke-linecap="round" stroke-linejoin="round" stroke-miterlimit="10" d="
	M196.583,167.278c0,0,3.689,8.305-5.012,17.27"/>
<path fill="none" stroke="#FFFFFF" stroke-width="3" stroke-linecap="round" stroke-linejoin="round" stroke-miterlimit="10" d="
	M177.552,216.376c0,0-2.725,0.283-3.288,4.117"/>
</svg>
