<?xml version="1.0" encoding="utf-8"?>
<!-- Generator: Adobe Illustrator 24.1.0, SVG Export Plug-In . SVG Version: 6.00 Build 0)  -->
<svg version="1.1" id="Layer_1" xmlns="http://www.w3.org/2000/svg" xmlns:xlink="http://www.w3.org/1999/xlink" x="0px" y="0px"
	 viewBox="0 0 500 500" style="enable-background:new 0 0 500 500;" xml:space="preserve">
<style type="text/css">
	.st0{fill:#5591CD;}
</style>
<g>
	<path class="st0" d="M256.1,119.6c-73,0-132.3,59.3-132.3,132.3c0,47.6,25.4,89.5,63.3,112.7c8.7-30,36.3-51.8,69-51.8
		c32.6,0,60.3,21.8,69,51.8c37.9-23.3,63.1-65.2,63.1-112.7C388.3,179,329,119.6,256.1,119.6z M303.2,258.1
		c-2.7,21.2-19.7,38.2-40.9,40.9c-31,4-57.3-22.3-53.3-53.3c2.7-21.2,19.7-38.2,40.9-40.9C280.9,200.9,307.2,227.1,303.2,258.1z"/>
	<path class="st0" d="M493.1,251.2c0,115.6-82.7,211.8-192.2,232.8c-6.3-9.8-15.8-17.4-27-21.4v-40c85.8-9,153-82,152.6-170.2
		c-0.2-94.1-77-170.4-171.1-170S85,159.5,85.4,253.6c0.2,87.8,67.3,160.1,152.7,169v40c-11.2,4-20.6,11.6-27,21.4
		c-109.3-21-192-117.2-192-232.8c0-130.9,106.1-237,237-237C387,14.2,493.1,120.3,493.1,251.2z"/>
</g>
</svg>
