<?xml version="1.0" encoding="utf-8"?>
<!-- Generator: Adobe Illustrator 24.1.0, SVG Export Plug-In . SVG Version: 6.00 Build 0)  -->
<svg version="1.1" id="Layer_1" xmlns="http://www.w3.org/2000/svg" xmlns:xlink="http://www.w3.org/1999/xlink" x="0px" y="0px"
	 viewBox="0 0 500 500" style="enable-background:new 0 0 500 500;" xml:space="preserve">
<style type="text/css">
	.st0{fill:#5591CD;}
</style>
<g>
	<path class="st0" d="M258.1,110.9c-77,0-139.5,62.5-139.5,139.5c0,50.2,26.8,94.4,66.7,118.8c9.2-31.6,38.3-54.6,72.8-54.6
		c34.4,0,63.6,23,72.8,54.6c40-24.6,66.5-68.7,66.5-118.8C397.5,173.6,335,110.9,258.1,110.9z M307.8,257
		c-2.8,22.4-20.8,40.3-43.1,43.1c-32.7,4.2-60.4-23.5-56.2-56.2c2.8-22.4,20.8-40.3,43.1-43.1C284.3,196.7,312,224.3,307.8,257z"/>
	<path class="st0" d="M449.5,112.1c67.6,93.8,56.8,220.2-19.7,301.2c-10.8-4.3-23-4.9-34.4-1.6L372,379.4
		c64.3-57.5,76.1-156,24.2-227.3C341,75.9,234.1,58.9,158,114.3s-93.1,162.2-37.7,238.3c51.5,71.1,148.2,90.5,222.7,47.7l23.4,32.4
		c-6.7,9.8-9.9,21.5-9.4,33.2c-100.9,46.9-224.3,17.3-291.9-76.5c-76.6-106.2-52.6-254.3,53.6-330.9S373,6,449.5,112.1z"/>
</g>
</svg>
